<svg xmlns="http://www.w3.org/2000/svg" viewBox="0 0 512 512" width="512" height="512" fill="#d91780"><path d="M18.3 277.7c7.6 5.5 14.9 11.1 22.5 16.3 31.1 21.1 65.2 35.5 101.6 44.6 27.7 6.9 55.9 10.6 84.5 11.9 9.3.4 18.7.4 28 .6 27.2.5 54.2-1.4 81.1-5.6 54.2-8.5 104.1-27.3 148.1-60.6 3.1-2.3 6.1-4.7 9.3-7.2 3.1 2.7 6.3 5.5 9.4 8.2 3.1 2.7 6.1 5.4 9.3 8.2-30.3 37.7-67.7 65.9-112.2 85.4 44.3 19.5 81.6 47.6 111.8 85.2-6.1 5.5-12 10.9-18.1 16.4-3.3-2.5-6.5-5-9.7-7.5-34.3-25.9-72.6-43.2-114.2-53.5-27.7-6.9-55.9-10.6-84.5-11.9-9.4-.4-18.8-.4-28.2-.6-27-.5-53.9 1.4-80.6 5.6-48.5 7.6-93.9 23.4-134.7 51-7.8 5.3-15.3 11-23 16.6-6-5.2-12.1-10.6-18.5-16.2 30.2-37.7 67.6-65.8 112.2-85.4C67.9 359.7 30.6 331.6.4 294c6.1-5.6 12.1-11 17.9-16.3zm217.8-144.8c-7.1 6-14 12.2-21.3 17.8-5.9 4.6-12.3 8.6-18.6 12.7-1.6 1-3.6 1.5-5.5 1.7-2.8.3-5-1.1-6.4-3.5-3.9-6.9-7.7-13.8-11.4-20.7-2-3.7-.7-7.8 3.7-10 7.6-3.9 15.2-7.9 23.1-11.2 7.5-3.1 15.4-5.5 23.3-8.2-4.1-1.4-8.2-2.7-12.3-4.1-11.7-4.2-23.2-9-34.1-15.1-5.4-3.1-6.4-6.6-3.4-12 3.3-6 6.6-11.9 9.9-17.9 2.8-5 7.1-6.4 12-3.3 6.7 4.2 13.5 8.6 19.8 13.4 6.5 4.9 12.6 10.5 18.8 15.8.5.4 1 .9 1.9 1.6-1.2-5.1-2.3-9.8-3.3-14.6-2.3-11.7-4.1-23.4-4-35.4 0-6 2.9-8.9 8.9-8.9h21.7c4.3 0 7 1.9 7.3 6.1.4 5.4.2 10.9-.2 16.3-.8 11.8-3.1 23.4-6 34.9-.1.4-.1.7-.2 1.6 2-1.8 3.6-3.3 5.3-4.8 10.2-9.2 20.8-18 32.5-25.3 2.3-1.4 5.1-2.2 7.8-2.7 2.5-.4 4.7 1 6.1 3.3 4 6.9 8.1 13.7 12 20.6 2.1 3.7.5 7.9-3.5 10.2-9 5.2-18.4 9.8-28.2 13.2-5.4 1.9-11 3.6-16.4 5.4-.7.2-1.3.5-2.4.9 5.4 1.8 10.5 3.3 15.5 5 10.3 3.6 20.4 7.9 29.9 13.2 1.1.6 2.2 1.3 3.2 2.2 3.4 2.9 4 6.3 1.8 10.1-3.6 6.4-7.3 12.8-10.9 19.2-2.1 3.6-5 4.9-9 3.8-1.6-.4-3.1-1.2-4.5-2-13.3-7.8-25-17.7-36.1-28.4-.5-.5-1.1-1-1.8-1.7 1.3 6.5 2.8 12.8 3.6 19.1 1.3 10.2 2.2 20.5 3.1 30.7.1 1.5-.2 3.2-.7 4.7-1.1 3.2-3.4 5-6.8 5-7.8 0-15.5.1-23.3 0-4.5-.1-7.7-3.4-7.5-8.5.3-7.9.8-15.7 1.6-23.6.4-4.5 1.4-9 2.3-13.4.8-4.5 1.8-8.8 2.7-13.2zM401 178.3c-1.6-8.2-3.6-16.3-4.7-24.6-1.2-8.5-1.7-17.2-2.2-25.8-.3-5.3 3.1-8.3 8.3-8.3h22.4c4.1 0 6.9 1.9 7.2 6 .4 5.5.2 11-.2 16.5-.8 11.8-3.1 23.4-6 34.9-.1.3-.1.6-.1 1.4.9-.8 1.5-1.3 2-1.8 11-10.3 22.6-19.8 35.2-28 1.8-1.2 3.9-2.1 5.9-2.7 3.9-1.1 6.8.3 8.8 3.8 3.7 6.3 7.4 12.7 11.1 19.1 2.5 4.4 1.5 8.7-3 11-8.5 4.3-16.9 8.5-25.7 12.2-6 2.6-12.5 4.3-18.7 6.4-.8.3-1.5.5-3 .9 2.4.7 4.1 1.3 5.9 1.8 13.8 4.2 27.1 9.4 39.7 16.4 1.3.7 2.5 1.5 3.5 2.5 3.1 2.8 3.6 6.1 1.6 9.8-3.6 6.4-7.3 12.8-10.9 19.2-2.1 3.7-5.1 5-9.2 3.8-1.5-.4-3-1.2-4.3-2-13.4-7.9-25.2-17.7-36.2-28.5-.5-.5-1-.9-1.7-1.6 1.1 5.7 2.3 11 3.2 16.4 2 11 3.4 22 3.5 33.2 0 1.6-.2 3.4-.7 4.9-1 3.2-3.3 5.1-6.8 5.1-7.8 0-15.7.1-23.5 0-4.5-.1-7.7-3.6-7.3-8.9.6-9.7 1.3-19.3 2.5-28.9.9-7 2.7-13.9 4.1-20.8-5.5 4.7-10.8 9.8-16.5 14.2-7.5 5.8-15.4 11.1-23.2 16.4-1.7 1.1-4.1 1.6-6.2 1.7-2.7.2-4.7-1.4-6-3.8-3.5-6.4-7.1-12.8-10.7-19.3-2.5-4.6-1.6-8.7 3.1-11.1 8.7-4.4 17.5-8.7 26.5-12.5 6.4-2.7 13.2-4.5 20-6.8-.6-.2-1.2-.5-1.8-.6-15.4-4.9-30.5-10.7-44.7-18.7-5.5-3.1-6.5-6.6-3.4-12.2 3.3-5.9 6.5-11.8 9.8-17.7 2.8-5.1 7.2-6.5 12.2-3.3 7.3 4.7 14.6 9.5 21.6 14.8 5.9 4.4 11.3 9.5 16.9 14.3.6.3 1.2.8 1.7 1.2zM80.2 218.5c-4.3 3.7-8.7 7.8-13.5 11.4-7.4 5.5-15 10.8-22.7 15.9-1.6 1.1-3.8 1.4-5.8 1.7-2.4.3-4.2-.9-5.4-3.1-2.9-5.2-5.8-10.3-8.7-15.4-2.5-4.5-1.5-8.4 3.1-10.8 5.2-2.7 10.3-5.5 15.7-7.8 8-3.3 16.2-6.1 24.3-9.2.6-.2 1.3-.4 2.4-.8-2.3-.8-4.1-1.4-6-2-12.8-4.5-25.3-9.6-36.9-16.5-4.9-2.9-5.6-5.5-2.8-10.5 2.8-4.9 5.5-9.8 8.3-14.6 2.4-4.2 5.8-5.1 9.9-2.7 11.7 6.6 22.4 14.5 32.6 23.2 1.7 1.5 3.4 2.9 5.3 4.5-1.3-6.3-2.8-12.2-3.6-18.2-1.1-9.2-1.8-18.4-2.5-27.6-.1-1.6.5-3.4 1.1-5 .8-2.1 2.6-3.1 4.9-3.1h20.8c2.6 0 4.7 1.5 5 4.4.4 4.3.5 8.8.3 13.1-.6 11.7-2.3 23.3-5.2 34.8-.1.4-.1.7-.2 1.7 1.4-1.1 2.3-2 3.3-2.8 9.7-7.5 19.4-15.1 29.2-22.6 1.6-1.2 3.4-2.3 5.2-3.2 4.1-2 7.9-1.6 10.4 3 2.7 5.1 5.9 10.1 8.9 15.1 2.4 4 1.2 7.6-2.8 9.9-13.3 7.8-27.3 13.8-42.1 18.2-.1 0-.2.2-.5.5 1 .3 1.9.6 2.7.8 13.8 4.2 27 9.7 39.4 16.9 5 2.9 5.9 6.1 3 11.1-2.9 5-5.8 10-8.7 14.9-1.9 3.2-4.2 4.1-7.7 3-1.2-.4-2.4-1-3.5-1.6-12.5-7.3-23.7-16.1-34.3-25.9-.4-.4-.9-.8-1.6-1.4 1 5.9 2.3 11.4 2.9 17.1 1.1 9.5 2.1 19 2.7 28.5.4 6.1-2.4 8.6-8.4 8.6H82.3c-4.6 0-7.2-2-7.2-6.6-.1-6.6 0-13.2.8-19.7 1.1-9.1 2.8-18.2 4.3-27.2z"/></svg>